<!DOCTYPE svg PUBLIC "-//W3C//DTD SVG 1.1//EN" "http://www.w3.org/Graphics/SVG/1.1/DTD/svg11.dtd">
<!-- Uploaded to: SVG Repo, www.svgrepo.com, Transformed by: SVG Repo Mixer Tools -->
<svg fill="#000000" height="800px" width="800px" version="1.1" id="Layer_1" xmlns="http://www.w3.org/2000/svg" xmlns:xlink="http://www.w3.org/1999/xlink" viewBox="0 0 1792 1792" xml:space="preserve" transform="rotate(180)">
<g id="SVGRepo_bgCarrier" stroke-width="0"/>
<g id="SVGRepo_tracerCarrier" stroke-linecap="round" stroke-linejoin="round"/>
<g id="SVGRepo_iconCarrier"> <path d="M1532.1,808.7c23.6,23.2,35.9,55.6,33.6,88.6c2.4,31.9-10,63-33.6,84.6l-546.3,548.3c-45.4,45.4-119,45.4-164.4,0 c-45.4-45.4-45.4-119,0-164.4l354.4-354.4H342.1c-63.8,0.4-115.8-51-116.1-114.8c0-0.2,0-0.4,0-0.7c0.4-64,52.1-115.8,116.1-116.1 h833.6L821.4,426.2c-45.4-45.4-45.4-119,0-164.4c45.4-45.4,119-45.4,164.4,0l0,0L1532.1,808.7z"/> </g>
</svg>